# xmcd
#
# Track frame offsets:
#	150
#	18200
#	36921
#	53885
#	68721
#	86459
#	105765
#	122401
#	139839
#	157813
#	171559
#	188957
#
# Disc length: 2767 seconds
#
# Revision: 1
# Processed by: cddbd v1.5.2PL0 Copyright (c) Steve Scherf et al.
# Submitted via: audiograbber 1.83.01
#
DISCID=920acd0c
DTITLE=Bill White - I'm A Cowboy In My Heart
DYEAR=1900
DGENRE=Country
TTITLE0=I'm A Cowboy In My Heart
TTITLE1=Trial and Error
TTITLE2=Montana ( I Think I Hear Montana Call My Name)
TTITLE3=Vital Signs
TTITLE4=Inmate In Paradise
TTITLE5=End Of The Road
TTITLE6=You Inspire Me
TTITLE7=Life After Beth
TTITLE8=I Wish I Had Someone To Hold
TTITLE9=Rash Of Love
TTITLE10=My Oasis
TTITLE11=She Needs Tp Keep Touch With You Heart
EXTD=
EXTT0=
EXTT1=
EXTT2=
EXTT3=
EXTT4=
EXTT5=
EXTT6=
EXTT7=
EXTT8=
EXTT9=
EXTT10=
EXTT11=
PLAYORDER=
